<svg height="1070" width="720" xmlns="http://www.w3.org/2000/svg">
<rect height="1070" fill="#555" width="720"></rect>
<text fill="#7f7" font-family="Courier New" font-size="12" xml:space="preserve">
<tspan x="10" y="26"></tspan>

<tspan x="10" y="42">[MODE_BUILD=buildApp] - 2018-06-21T17:00:07.048Z - npm-testing /home/travis/build/kaizhu256/node\</tspan>
<tspan x="10" y="58">-swgg-wechat-pay</tspan>

<tspan x="10" y="74"></tspan>

<tspan x="10" y="90"></tspan>

<tspan x="10" y="106">buildApp - merged test-report from file /home/travis/build/kaizhu256/node-swgg-wechat-pay/tmp/bu\</tspan>
<tspan x="10" y="122">ild/test-report.json</tspan>

<tspan x="10" y="138">override assets /home/travis/build/kaizhu256/node-swgg-wechat-pay/assets.swgg.swagger.json</tspan>

<tspan x="10" y="154">&gt; server listening on http-port 52534</tspan>

<tspan x="10" y="170">{ Error: error.semanticPaths7 - Path parameter swaggerJson["paths"]["/{notify_url}"]["post"]["pa\</tspan>
<tspan x="10" y="186">rameters"][0] = {"in":"path","required":true,"type":"string","x-swgg-$ref":"#/parameters/notify_\</tspan>
<tspan x="10" y="202">url.required"} was defined but never used</tspan>

<tspan x="10" y="218">    at Object.local.throwSwaggerError (/home/travis/build/kaizhu256/node-swgg-wechat-pay/assets.\</tspan>
<tspan x="10" y="234">utility2.rollup.js:27902:21)</tspan>

<tspan x="10" y="250">    at /home/travis/build/kaizhu256/node-swgg-wechat-pay/assets.utility2.rollup.js:27137:35</tspan>

<tspan x="10" y="266">    at Array.forEach (&lt;anonymous&gt;)</tspan>

<tspan x="10" y="282">    at /home/travis/build/kaizhu256/node-swgg-wechat-pay/assets.utility2.rollup.js:27097:50</tspan>

<tspan x="10" y="298">    at Array.forEach (&lt;anonymous&gt;)</tspan>

<tspan x="10" y="314">    at /home/travis/build/kaizhu256/node-swgg-wechat-pay/assets.utility2.rollup.js:27074:54</tspan>

<tspan x="10" y="330">    at Array.forEach (&lt;anonymous&gt;)</tspan>

<tspan x="10" y="346">    at Object.local.swaggerValidate (/home/travis/build/kaizhu256/node-swgg-wechat-pay/assets.ut\</tspan>
<tspan x="10" y="362">ility2.rollup.js:27073:44)</tspan>

<tspan x="10" y="378">    at /home/travis/build/kaizhu256/node-swgg-wechat-pay/assets.utility2.rollup.js:21200:40</tspan>

<tspan x="10" y="394">    at Object.local.tryCatchOnError (/home/travis/build/kaizhu256/node-swgg-wechat-pay/assets.ut\</tspan>
<tspan x="10" y="410">ility2.rollup.js:22667:26)</tspan>

<tspan x="10" y="426">  messageShort:</tspan>

<tspan x="10" y="442">   'Path parameter /{notify_url}["post"]["parameters"][0] was defined but never used',</tspan>

<tspan x="10" y="458">  options:</tspan>

<tspan x="10" y="474">   { data:</tspan>

<tspan x="10" y="490">      { in: 'path',</tspan>

<tspan x="10" y="506">        required: true,</tspan>

<tspan x="10" y="522">        type: 'string',</tspan>

<tspan x="10" y="538">        'x-swgg-$ref': '#/parameters/notify_url.required' },</tspan>

<tspan x="10" y="554">     errorType: 'semanticPaths7',</tspan>

<tspan x="10" y="570">     prefix:</tspan>

<tspan x="10" y="586">      [ 'swaggerJson', 'paths', '/{notify_url}', 'post', 'parameters', 0 ],</tspan>

<tspan x="10" y="602">     prefix0:</tspan>

<tspan x="10" y="618">      'swaggerJson["paths"]["/{notify_url}"]["post"]["parameters"][0] = {"in":"path","required":\</tspan>
<tspan x="10" y="634">true,"type":"string","x-swgg-$ref":"#/parameters/notify_url.required"}',</tspan>

<tspan x="10" y="650">     prefix2: '/{notify_url}["post"]["parameters"][0]',</tspan>

<tspan x="10" y="666">     schema2: 'undefined',</tspan>

<tspan x="10" y="682">     type2: 'object' },</tspan>

<tspan x="10" y="698">  statusCode: 400 }</tspan>

<tspan x="10" y="714">&gt; server listening on http-port 38135</tspan>

<tspan x="10" y="730">[node test-case 1 of 1 passed] - testCase_buildApp_default</tspan>

<tspan x="10" y="746"></tspan>

<tspan x="10" y="762">buildApp - merged test-report from file /home/travis/build/kaizhu256/node-swgg-wechat-pay/tmp/bu\</tspan>
<tspan x="10" y="778">ild/test-report.json</tspan>

<tspan x="10" y="794"></tspan>

<tspan x="10" y="810">-------------------------------------------------------</tspan>

<tspan x="10" y="826">| test-report - buildApidoc - node - linux v10.5.0 - 2018-06-21T16:59:42.975Z</tspan>

<tspan x="10" y="842">|   29973 ms            0 failed        1 passed      |</tspan>

<tspan x="10" y="858">-------------------------------------------------------</tspan>

<tspan x="10" y="874">| test-report - npmTest - node - linux v10.5.0 - 2018-06-21T16:59:22.870Z</tspan>

<tspan x="10" y="890">|   17396 ms            0 failed        8 passed      |</tspan>

<tspan x="10" y="906">-------------------------------------------------------</tspan>

<tspan x="10" y="922"></tspan>

<tspan x="10" y="938">created test-report file /home/travis/build/kaizhu256/node-swgg-wechat-pay/tmp/build/test-report\</tspan>
<tspan x="10" y="954">.html</tspan>

<tspan x="10" y="970"></tspan>

<tspan x="10" y="986"></tspan>

<tspan x="10" y="1002">buildApp - 0 failed tests</tspan>

<tspan x="10" y="1018"></tspan>

<tspan x="10" y="1034"></tspan>

<tspan x="10" y="1050">[MODE_BUILD=buildApp] - 2018-06-21T17:00:14.366Z - EXIT_CODE - 0</tspan>

</text>
</svg>
