<svg height="542" width="720" xmlns="http://www.w3.org/2000/svg">
<rect height="542" fill="#555" width="720"></rect>
<text fill="#7f7" font-family="Courier New" font-size="12" xml:space="preserve">
<tspan x="10" y="26">2018-06-21 17:02:44 +0000u000a[npm publishAfterCommit]</tspan>

<tspan x="10" y="42"></tspan>

<tspan x="10" y="58">2018-06-21 11:56:47 -0500u000a[npm publishAfterCommitAfterBuild]</tspan>

<tspan x="10" y="74"></tspan>

<tspan x="10" y="90">2018-06-19 20:46:23 +0000u000a[ci skip] npm published 2018.6.19</tspan>

<tspan x="10" y="106"></tspan>

<tspan x="10" y="122">2018-06-19 20:09:26 +0000u000a[npm publishAfterCommitAfterBuild]</tspan>

<tspan x="10" y="138"></tspan>

<tspan x="10" y="154">2018-01-19 14:16:50 +0700u000a[npm publish] - npm publish v2018.1.18</tspan>

<tspan x="10" y="170">- auto-sync master swagger.json from ../swgg-/assets.swgg.swagger.json</tspan>

<tspan x="10" y="186">- disable heroku test-server</tspan>

<tspan x="10" y="202">- fix failed semanticRequired validation-error in ui</tspan>

<tspan x="10" y="218">- remove unused datatable link</tspan>

<tspan x="10" y="234"></tspan>

<tspan x="10" y="250">2017-11-21 14:49:19 +0800u000a[npm publish] - npm publish 2017.11.21</tspan>

<tspan x="10" y="266">- publish sub-package wechat-pay</tspan>

<tspan x="10" y="282"></tspan>

<tspan x="10" y="298">2017-11-21 12:37:57 +0800u000a[npm publish] - npm publish 2017.11.20</tspan>

<tspan x="10" y="314">- add api POST /pay/closeorder</tspan>

<tspan x="10" y="330">- add api POST /pay/downloadbill</tspan>

<tspan x="10" y="346">- add api POST /pay/micropay</tspan>

<tspan x="10" y="362">- add api POST /pay/queryexchagerate</tspan>

<tspan x="10" y="378">- add api POST /pay/refundquery</tspan>

<tspan x="10" y="394">- add api POST /pay/settlementquery</tspan>

<tspan x="10" y="410">- add api POST /pay/unifiedorder</tspan>

<tspan x="10" y="426">- add api POST /payitil/report</tspan>

<tspan x="10" y="442">- add api POST /secapi/pay/refund</tspan>

<tspan x="10" y="458">- add api POST /secapi/pay/reverse</tspan>

<tspan x="10" y="474">- add api POST /tools/shorturl</tspan>

<tspan x="10" y="490">- add api POST /{notify_url}</tspan>

<tspan x="10" y="506"></tspan>

<tspan x="10" y="522">2014-03-26 02:31:50 +0700u000aadd blank README.md</tspan>

</text>
</svg>
