<svg height="926" width="720" xmlns="http://www.w3.org/2000/svg">
<rect height="926" fill="#555" width="720"></rect>
<text fill="#7f7" font-family="Courier New" font-size="12" xml:space="preserve">
<tspan x="10" y="26"></tspan>

<tspan x="10" y="42">&gt; swgg-wechat-pay@2018.6.19 postinstall /tmp/app/node_modules/swgg-wechat-pay</tspan>

<tspan x="10" y="58">&gt; ./npm_scripts.sh</tspan>

<tspan x="10" y="74"></tspan>

<tspan x="10" y="90">/tmp/app</tspan>

<tspan x="10" y="106">└── swgg-wechat-pay@2018.6.19  (git://github.com/kaizhu256/node-swgg-wechat-pay.git#f641a2b74a8b\</tspan>
<tspan x="10" y="122">c20c5c871a644c40e72f572bb960)</tspan>

<tspan x="10" y="138"></tspan>

<tspan x="10" y="154">npm WARN enoent ENOENT: no such file or directory, open '/tmp/app/package.json'</tspan>

<tspan x="10" y="170">npm WARN app No description</tspan>

<tspan x="10" y="186">npm WARN app No repository field.</tspan>

<tspan x="10" y="202">npm WARN app No README data</tspan>

<tspan x="10" y="218">npm WARN app No license field.</tspan>

<tspan x="10" y="234">override assets /tmp/app/assets.swgg.swagger.json</tspan>

<tspan x="10" y="250">{ Error: error.semanticPaths7 - Path parameter swaggerJson["paths"]["/pay/unifiedorder"]["post"]\</tspan>
<tspan x="10" y="266">["parameters"][18] = {"default":"http://wxpay.weixin.qq.com/pub_v2/pay/notify.v2.php","descripti\</tspan>
<tspan x="10" y="282">on":"Notification URL.... was defined but never used</tspan>

<tspan x="10" y="298">    at Object.local.throwSwaggerError (/tmp/app/node_modules/swgg-wechat-pay/assets.utility2.rol\</tspan>
<tspan x="10" y="314">lup.js:27900:21)</tspan>

<tspan x="10" y="330">    at /tmp/app/node_modules/swgg-wechat-pay/assets.utility2.rollup.js:27135:35</tspan>

<tspan x="10" y="346">    at Array.forEach (native)</tspan>

<tspan x="10" y="362">    at /tmp/app/node_modules/swgg-wechat-pay/assets.utility2.rollup.js:27095:50</tspan>

<tspan x="10" y="378">    at Array.forEach (native)</tspan>

<tspan x="10" y="394">    at /tmp/app/node_modules/swgg-wechat-pay/assets.utility2.rollup.js:27072:54</tspan>

<tspan x="10" y="410">    at Array.forEach (native)</tspan>

<tspan x="10" y="426">    at Object.local.swaggerValidate (/tmp/app/node_modules/swgg-wechat-pay/assets.utility2.rollu\</tspan>
<tspan x="10" y="442">p.js:27071:44)</tspan>

<tspan x="10" y="458">    at /tmp/app/node_modules/swgg-wechat-pay/assets.utility2.rollup.js:25573:23</tspan>

<tspan x="10" y="474">    at Object.local.tryCatchOnError (/tmp/app/node_modules/swgg-wechat-pay/assets.utility2.rollu\</tspan>
<tspan x="10" y="490">p.js:22665:26)</tspan>

<tspan x="10" y="506">  messageShort: 'Path parameter /pay/unifiedorder["post"]["parameters"][18] was defined but neve\</tspan>
<tspan x="10" y="522">r used',</tspan>

<tspan x="10" y="538">  options: </tspan>

<tspan x="10" y="554">   { data: </tspan>

<tspan x="10" y="570">      { default: 'http://wxpay.weixin.qq.com/pub_v2/pay/notify.v2.php',</tspan>

<tspan x="10" y="586">        description: 'Notification URL. Specifies callback address for receiving WeChat payment \</tspan>
<tspan x="10" y="602">notifications.',</tspan>

<tspan x="10" y="618">        in: 'path',</tspan>

<tspan x="10" y="634">        name: 'notify_url',</tspan>

<tspan x="10" y="650">        required: true,</tspan>

<tspan x="10" y="666">        type: 'string' },</tspan>

<tspan x="10" y="682">     errorType: 'semanticPaths7',</tspan>

<tspan x="10" y="698">     prefix: </tspan>

<tspan x="10" y="714">      [ 'swaggerJson',</tspan>

<tspan x="10" y="730">        'paths',</tspan>

<tspan x="10" y="746">        '/pay/unifiedorder',</tspan>

<tspan x="10" y="762">        'post',</tspan>

<tspan x="10" y="778">        'parameters',</tspan>

<tspan x="10" y="794">        18 ],</tspan>

<tspan x="10" y="810">     prefix0: 'swaggerJson["paths"]["/pay/unifiedorder"]["post"]["parameters"][18] = {"default":\</tspan>
<tspan x="10" y="826">"http://wxpay.weixin.qq.com/pub_v2/pay/notify.v2.php","description":"Notification URL....',</tspan>

<tspan x="10" y="842">     prefix2: '/pay/unifiedorder["post"]["parameters"][18]',</tspan>

<tspan x="10" y="858">     schema2: 'undefined',</tspan>

<tspan x="10" y="874">     type2: 'object' },</tspan>

<tspan x="10" y="890">  statusCode: 400 }</tspan>

<tspan x="10" y="906">server starting on port 8081</tspan>

</text>
</svg>
